<svg xmlns="http://www.w3.org/2000/svg" xmlns:xlink="http://www.w3.org/1999/xlink" version="1.1" xml:space="preserve" viewBox="100.1 112.64 199.8 174.72">
<desc>Created with Fabric.js 3.6.2</desc>
<defs>
</defs>
<g transform="matrix(4.18 0 0 4.18 200 200)" id="Fill-18">
<path style="stroke: none; stroke-width: 1; stroke-dasharray: none; stroke-linecap: butt; stroke-dashoffset: 0; stroke-linejoin: miter; stroke-miterlimit: 4; fill: rgb(19,69,99); fill-rule: nonzero; opacity: 1;" transform=" translate(146, 198)" d="M -146 -177.1 l -0.8 -0.7 c -18.2 -14.8 -23.1 -20 -23.1 -28.5 c 0 -7 5.7 -12.6 12.6 -12.6 c 5.8 0 9.1 3.3 11.3 5.8 c 2.2 -2.5 5.5 -5.8 11.3 -5.8 c 7 0 12.6 5.7 12.6 12.6 c 0 8.5 -4.9 13.7 -23.1 28.5 L -146 -177.1 L -146 -177.1 z M -157.3 -216.3 c -5.5 0 -10 4.5 -10 10 c 0 7.3 4.6 12.1 21.3 25.8 c 16.7 -13.7 21.3 -18.5 21.3 -25.8 c 0 -5.5 -4.5 -10 -10 -10 c -5 0 -7.7 3 -9.8 5.4 l -1.5 1.7 l -1.5 -1.7 C -149.6 -213.3 -152.3 -216.3 -157.3 -216.3 L -157.3 -216.3 z" stroke-linecap="round"/>
</g>
</svg>