<svg version="1.2" xmlns="http://www.w3.org/2000/svg" viewBox="0 0 646 263" width="646" height="263">
	<title>LOGO_AGRO_LIDER_ALB-svg</title>
	<style>
		.s0 { fill: #ffffff } 
		.s1 { fill: #bdd631 } 
	</style>
	<g id="Layer">
		<g id="Layer_1-2_2_">
			<path id="Layer" class="s0" d="m135.4 260.5h-4.5l-3.7-12.7h-0.1l-3.7 12.7h-4.4l-5.4-18.7h4.9l3 12.4 3.4-12.4h4.7l3.3 12.4h0.1l3-12.4h4.7z"/>
			<path id="Layer" class="s0" d="m170.4 260.5h-4.5l-3.7-12.7h-0.1l-3.7 12.7h-4.5l-5.3-18.7h4.9l3 12.4 3.4-12.4h4.7l3.3 12.4h0.1l3-12.4h4.7z"/>
			<path id="Layer" class="s0" d="m205.4 260.5h-4.5l-3.7-12.7h-0.1l-3.7 12.7h-4.5l-5.3-18.7h4.9l2.9 12.4h0.1l3.3-12.4h4.7l3.4 12.4h0.1l3-12.4h4.7z"/>
			<path id="Layer" class="s0" d="m223.5 258.1c0 0.7-0.3 1.4-0.8 1.9-0.5 0.5-1.2 0.8-1.9 0.8-0.4 0-0.7-0.1-1-0.2-0.3-0.1-0.6-0.3-0.9-0.5-0.2-0.2-0.4-0.5-0.6-0.8-0.3-0.6-0.3-1.4 0-2 0.2-0.3 0.3-0.6 0.6-0.8q0.4-0.3 0.9-0.6c0.3-0.1 0.7-0.1 1 0 0.7 0 1.4 0.2 1.9 0.7 0.5 0.5 0.8 1.2 0.8 1.9"/>
			<path id="Layer" fill-rule="evenodd" class="s0" d="m247.3 260.4l-1.5-3.8h-7.2l-1.4 3.8h-4.9l7.8-18.7h4.4l7.8 18.7zm-5.1-13.7l-2.4 6.4h4.7z"/>
			<path id="Layer" class="s0" d="m274.7 260.5c-1.3 0.3-2.7 0.5-4 0.5-1.4 0-2.8-0.2-4.1-0.7-1.2-0.4-2.3-1.1-3.3-2-0.9-0.9-1.6-1.9-2.1-3.1-0.5-1.3-0.8-2.6-0.8-4-0.1-1.4 0.1-2.8 0.6-4.1 0.5-1.2 1.2-2.2 2.2-3.1 0.9-0.8 2-1.5 3.2-2 1.3-0.5 2.6-0.7 4-0.7 1.4 0 2.8 0.2 4.1 0.7 1.1 0.4 2.2 1 3.1 1.8l-2.8 3.3c-0.5-0.5-1.1-1-1.7-1.2-0.8-0.3-1.6-0.5-2.5-0.5-0.8 0-1.5 0.1-2.2 0.4-0.7 0.3-1.2 0.7-1.7 1.2-0.5 0.5-0.9 1.2-1.1 1.9-0.3 0.8-0.4 1.5-0.4 2.3 0 0.8 0.1 1.6 0.4 2.4 0.2 0.7 0.6 1.3 1.1 1.9q0.7 0.7 1.8 1.2c0.8 0.3 1.6 0.4 2.5 0.4q0.8 0 1.5 0c0.4-0.1 0.9-0.2 1.3-0.4v-3.4h-3.6v-3.8h7.6v9.9c-1 0.5-2.1 0.9-3.2 1.2"/>
			<path id="Layer" fill-rule="evenodd" class="s0" d="m299.5 260.4l-4-7.6h-1.6v7.6h-4.4v-18.7h7.1c0.9 0 1.8 0.1 2.6 0.3 0.8 0.2 1.6 0.5 2.3 0.9 0.7 0.4 1.3 1 1.6 1.7 0.4 0.8 0.6 1.8 0.6 2.7 0 1.1-0.3 2.3-1 3.2-0.7 0.9-1.7 1.5-2.8 1.9l4.9 8zm0-12.9c-0.1-0.4-0.3-0.8-0.6-1.1-0.2-0.3-0.4-0.5-0.7-0.6-0.3-0.2-0.6-0.3-1-0.3-0.3 0-0.7 0-1 0h-2.4v4.4h3.3c0.4 0 0.7-0.1 1.1-0.3 0.3-0.2 0.6-0.4 0.8-0.7 0.2-0.3 0.3-0.8 0.3-1.2z"/>
			<path id="Layer" fill-rule="evenodd" class="s0" d="m334.5 251c0 1.4-0.2 2.8-0.8 4-0.5 1.2-1.2 2.3-2.2 3.1-0.9 0.9-2 1.6-3.2 2-2.6 1-5.5 1-8.1 0-1.2-0.5-2.3-1.2-3.2-2-0.9-0.9-1.6-2-2.1-3.1-0.5-1.3-0.8-2.7-0.8-4 0-1.4 0.2-2.8 0.8-4 0.5-1.2 1.2-2.2 2.1-3.1 0.9-0.8 2-1.5 3.2-2 2.6-0.9 5.5-0.9 8.1 0 1.2 0.4 2.3 1.1 3.2 2 0.9 0.8 1.7 1.9 2.2 3.1 0.5 1.2 0.8 2.6 0.8 4zm-4.9 0c0-0.8-0.1-1.5-0.4-2.3-0.3-0.7-0.6-1.3-1.1-1.8-0.5-0.5-1.1-0.9-1.7-1.2-0.7-0.3-1.4-0.4-2.2-0.4-0.8 0-1.5 0.1-2.2 0.4-0.6 0.3-1.2 0.7-1.7 1.2-0.5 0.5-0.9 1.1-1.1 1.8-0.3 0.7-0.4 1.5-0.4 2.3 0 0.8 0.1 1.6 0.4 2.3 0.3 0.7 0.6 1.3 1.1 1.9 0.5 0.5 1 0.9 1.7 1.2 0.7 0.3 1.4 0.5 2.2 0.5 0.7 0 1.5-0.1 2.2-0.5 0.6-0.3 1.2-0.7 1.7-1.2 0.5-0.5 0.8-1.2 1.1-1.9 0.3-0.7 0.4-1.5 0.4-2.3z"/>
			<path id="Layer" class="s0" d="m345.4 260.5v-18.7h4.5v14.7h7.2v4z"/>
			<path id="Layer" class="s0" d="m367.2 241.7h4.5v18.7h-4.5z"/>
			<path id="Layer" fill-rule="evenodd" class="s0" d="m401.1 251q0 2.3-0.9 4.2c-0.6 1.1-1.4 2.2-2.4 3-1 0.8-2.1 1.3-3.4 1.7-1.2 0.4-2.5 0.5-3.8 0.5h-7v-18.7h6.7c1.3 0 2.5 0.2 3.8 0.5 1.2 0.3 2.4 0.8 3.4 1.5 1 0.7 1.9 1.7 2.4 2.9 0.7 1.4 1 2.9 0.9 4.4m-4.5 0c0-0.9-0.2-1.8-0.5-2.6-0.3-0.7-0.8-1.2-1.4-1.7-0.6-0.4-1.3-0.7-2-0.9-0.7-0.2-1.5-0.3-2.3-0.3h-2.2v10.9h2.2c0.8 0 1.6-0.1 2.3-0.3 0.7-0.2 1.4-0.5 2-0.9 0.6-0.4 1.1-1 1.4-1.7 0.3-0.7 0.5-1.6 0.5-2.5z"/>
			<path id="Layer" class="s0" d="m411.8 260.5v-18.7h12.6v3.8h-8.2v3.5h7.8v3.6h-7.8v3.9h8.7v3.9z"/>
			<path id="Layer" fill-rule="evenodd" class="s0" d="m445.8 260.4l-4-7.6h-1.6v7.6h-4.4v-18.7h7.1c0.9 0 1.8 0.1 2.6 0.3 0.8 0.2 1.6 0.5 2.3 0.9 0.7 0.4 1.3 1 1.6 1.7 0.4 0.8 0.6 1.8 0.6 2.7 0 1.1-0.3 2.3-1 3.2-0.7 0.9-1.7 1.5-2.8 1.9l4.9 8zm0-12.9c0-0.4-0.1-0.7-0.3-1.1-0.2-0.3-0.4-0.5-0.7-0.6-0.3-0.2-0.6-0.3-1-0.3-0.3 0-0.7 0-1 0h-2.4v4.4h3.3c0.4 0 0.7-0.1 1.1-0.3 0.3-0.2 0.6-0.4 0.8-0.7 0.2-0.3 0.3-0.8 0.3-1.2z"/>
			<path id="Layer" class="s0" d="m465.9 258.1c0 0.7-0.3 1.4-0.8 1.9-0.5 0.5-1.2 0.8-1.9 0.8-0.4 0-0.7-0.1-1.1-0.2-0.3-0.1-0.6-0.3-0.8-0.5-0.3-0.2-0.4-0.5-0.6-0.8-0.3-0.6-0.3-1.4 0-2 0.1-0.3 0.3-0.6 0.6-0.8 0.2-0.2 0.5-0.4 0.8-0.6 0.4-0.1 0.7-0.1 1.1 0 0.7 0 1.4 0.2 1.9 0.7 0.5 0.5 0.8 1.2 0.8 1.9"/>
			<path id="Layer" class="s0" d="m494 260.5l0.1-13.3h-0.1l-4.8 13.3h-3.2l-4.7-13.3h-0.1l0.1 13.3h-4.3v-18.7h6.5l4.3 11.9 4.1-11.9h6.5v18.7z"/>
			<path id="Layer" fill-rule="evenodd" class="s0" d="m527.6 251q0 2.3-0.9 4.2c-0.6 1.1-1.4 2.2-2.4 3-1 0.8-2.2 1.3-3.4 1.7-1.2 0.4-2.5 0.5-3.8 0.5h-7v-18.7h6.8c1.3 0 2.5 0.2 3.8 0.5 1.2 0.3 2.4 0.8 3.4 1.5 1 0.8 1.8 1.7 2.4 2.9 0.8 1.4 1.1 2.9 1.1 4.4zm-4.7 0c0-0.9-0.2-1.8-0.5-2.6-0.3-0.7-0.8-1.2-1.4-1.7-0.6-0.4-1.3-0.7-2-0.9-0.7-0.2-1.5-0.3-2.2-0.3h-2.2v10.9h2.2c0.8 0 1.6-0.1 2.3-0.3 0.7-0.2 1.4-0.5 2-0.9 0.6-0.4 1.1-1 1.4-1.7 0.4-0.8 0.6-1.7 0.5-2.6z"/>
			<path id="Layer" fill-rule="evenodd" class="s0" d="m26 139.2h23.6l25.7 66h-24.1l-3.4-9.7h-21l-3.3 9.7h-23.5zm11.3 23l-5.3 16.3h10.7z"/>
			<path id="Layer" class="s0" d="m116.7 206.9c-5 0-9.9-0.8-14.5-2.5-4.2-1.5-8.1-3.9-11.4-6.9-3.3-3.1-5.8-6.8-7.6-10.9-3.7-9.2-3.7-19.5 0-28.7 1.8-4.1 4.3-7.9 7.6-11 3.3-3.1 7.1-5.4 11.4-7 4.5-1.7 9.2-2.5 14-2.5 5 0 10 0.8 14.7 2.5 4.2 1.5 8.1 3.8 11.4 6.9l-13 15.6c-1.3-1.6-3-2.9-4.8-3.8-2.2-1.1-4.6-1.5-7.1-1.4-1.8 0-3.6 0.4-5.3 1.1-1.7 0.7-3.2 1.8-4.5 3.1-1.3 1.4-2.4 3-3.1 4.8-0.8 2-1.3 4.1-1.2 6.2-0.2 4.1 1 8.1 3.6 11.4 2.9 3.1 7.1 4.7 11.4 4.4 1-0.1 2.1-0.3 3.1-0.6 0.8-0.1 1.6-0.3 2.3-0.7v-4.9h-10.6v-17.4h30.3v36.1c-1.7 1-3.5 1.8-5.3 2.5-2.1 0.8-4.2 1.5-6.4 2-2.4 0.6-4.7 1-7.2 1.4-2.5 0.4-5 0.5-7.6 0.5"/>
			<path id="Layer" fill-rule="evenodd" class="s0" d="m218.4 205.2h-24.7l-12.6-23.6h-0.6v23.6h-21.5v-66c0 0 43.6 0 45.7 0-3.5 7.4-5.1 15.5-4.7 23.7 1.3 24 18.6 42.3 18.4 42.3zm-26.7-41.1c0.6-0.9 0.9-1.9 0.8-2.9 0-1-0.2-2-0.7-2.8-0.4-0.6-1-1.2-1.7-1.5-0.7-0.3-1.4-0.5-2.2-0.6-0.7-0.1-1.5-0.1-2.2 0h-5.3v10.6h4.3c0.9 0.1 1.7 0.1 2.5 0 0.9-0.1 1.7-0.4 2.5-0.8 0.7-0.4 1.4-1 1.9-1.7z"/>
			<path id="Layer" class="s1" d="m350.8 139.2h22.3v46.9h21.9v19.1h-44.2z"/>
			<path id="Layer" class="s1" d="m406.8 139.2h22.4v66h-22.4z"/>
			<path id="Layer" fill-rule="evenodd" class="s1" d="m446.5 205.2v-66h24.6c5.1 0 10.2 0.5 15.1 1.6 4.5 0.9 8.8 2.7 12.6 5.3 3.5 2.6 6.3 6.1 8.2 10 2.3 4.9 3.4 10.3 3.3 15.7 0.1 5.2-0.9 10.4-3.1 15.1-1.9 4.1-4.8 7.6-8.3 10.4-3.6 2.7-7.7 4.8-12 6-4.6 1.3-9.4 1.9-14.2 1.9zm21.4-19.2h4.1c4.3 0.3 8.5-0.9 12-3.4 3-2.9 4.6-7 4.2-11.1 0.2-3.8-1.3-7.5-4.2-10-3.2-2.5-7.1-3.8-11.2-3.6h-4.9z"/>
			<path id="Layer" class="s1" d="m524.6 139.2h45.4v18.5h-24.5v5.6h23v17.3h-23v6.2h26.1v18.4h-47z"/>
			<path id="Layer" fill-rule="evenodd" class="s1" d="m585.7 139.2h28.4c3.2 0 6.5 0.3 9.6 1 3.1 0.6 6 1.8 8.6 3.4 2.5 1.7 4.6 4 6.1 6.6 1.7 3.2 2.5 6.8 2.3 10.4 0.1 3.8-1 7.5-3 10.7-2.1 3.2-5.1 5.6-8.6 7.1l16.8 26.8h-25.4l-12.6-23.6h-0.6v23.6h-21.5zm21.3 27.9h4.4c0.8 0 1.6-0.1 2.5-0.2 0.9-0.1 1.7-0.4 2.5-0.8 0.8-0.4 1.4-1 1.9-1.7 0.6-0.8 0.9-1.8 0.8-2.8 0-1-0.2-1.9-0.6-2.8-0.4-0.7-0.9-1.2-1.6-1.6-0.7-0.3-1.5-0.6-2.2-0.6-0.7-0.1-1.5-0.1-2.2 0h-5.3z"/>
			<path id="Layer" class="s0" d="m270.9 154.5c3 5.1 1.3 11.6-3.8 14.6-5.1 3-11.6 1.3-14.6-3.8-3-5.1-1.3-11.6 3.8-14.6 5.1-3 11.6-1.3 14.6 3.8z"/>
			<path id="Layer" fill-rule="evenodd" class="s0" d="m421.8 95.8c2.6 4.5 3.9 9.7 3.5 14.9-0.9 14.3-13.3 25-27.6 24.1-14.3-0.9-25.1-13.3-24.1-27.6l-61.8 36.3-0.7-0.3c2.7 8.1 3.5 16.6 2.1 25-4.5 28.4-31.3 47.7-59.7 43.1-14.5-2.3-27.5-10.7-35.5-23.1-15.6-24.1-8.8-56.4 15.4-72.1l-3.3-5.6-6.4 3.8c-0.4 0.4-0.9 0.6-1.4 0.8-2 0.6-4.1-0.4-4.8-2.4-0.6-2 0.4-4.1 2.4-4.8l15.9-9.1c1.4-0.9 2.8-1.6 4.3-2.3l-8.9-9.9c-0.4-0.4-0.7-0.9-0.8-1.4-0.6-2 0.6-4.1 2.6-4.7 1.3-0.3 2.6 0.1 3.5 1.1l10.9 11.8c14.3-4.6 29.8-3.6 43.3 2.8l12-7-5.6-9.5c-1-1.8-0.4-3.9 1.3-5l41.2-24.2-14.9-25.4-6.3 3.8c-1.4 0.5-3 0.1-4-1-1.4-1.5-1.3-3.9 0.2-5.3l9.5-5.5c1.7-1 3.9-0.5 5 1.2l16.7 28.5 18.9-11.1c3.6-1.9 8-0.8 10.1 2.6l26.5 45c8.5 0.7 16.2 5.4 20.5 12.8m-134.7 48.8c-8.3-14.1-26.5-18.8-40.6-10.5-14.1 8.3-18.8 26.5-10.5 40.6 8.3 14.1 26.5 18.8 40.6 10.5 14.1-8.3 18.8-26.4 10.5-40.6zm117.9-26.2c5.2-3.2 6.8-9.9 3.7-15.1-3.2-5.2-9.9-6.9-15.1-3.8-5.2 3.1-6.9 9.9-3.8 15.1 3.1 5.2 9.9 6.9 15.1 3.8z"/>
			<path id="Layer" class="s0" d="m402.6 107.3c0 0.1 0.1 0.1 0.1 0.2 1 1.8 0.3 4.1-1.5 5.1-1.8 1-4.1 0.3-5.1-1.5-1-1.8-0.3-4.1 1.5-5.1 1.8-0.9 4-0.3 5 1.3z"/>
			<path id="Layer" class="s0" d="m258.7 36.2c-3.6-6.1-1.5-14 4.6-17.6 1.1-0.6 2.3-1.1 3.5-1.4 1.2-3.6 3.6-6.7 6.8-8.8 7.7-5 17.9-2.7 22.8 5 3.2-0.2 6.4 0.7 8.9 2.7 0.5 0.5 1.1 1 1.6 1.5l0.3 0.3c0.5 0.6 1 1.2 1.4 1.9 0 0.1 0.1 0.1 0.1 0.2 3.6 6.2 1.5 14-4.7 17.6l-0.6 0.3c-0.4 0.2-0.9 0.4-1.4 0.6-0.3 0.1-0.7 0.2-1 0.3q-0.6 0.1-1.2 0.3h-1q-0.7 0-1.5 0h-0.9c-0.1 4.4-2.5 8.5-6.3 10.7-6.1 3.6-14 1.5-17.6-4.6q-0.7-1.4-1.2-2.7c-5.1 0.6-10-1.9-12.6-6.3z"/>
		</g>
	</g>
</svg>