<?xml version="1.0" encoding="utf-8"?>
<!-- Generator: Adobe Illustrator 23.0.3, SVG Export Plug-In . SVG Version: 6.00 Build 0)  -->
<svg version="1.1" id="Layer_1" xmlns="http://www.w3.org/2000/svg" xmlns:xlink="http://www.w3.org/1999/xlink" x="0px" y="0px"
	 viewBox="0 0 170.7 67.4" style="enable-background:new 0 0 170.7 67.4;" xml:space="preserve">
<style type="text/css">
	.st0{fill:#2B4466;}
	.st1{fill:#BDD631;}
</style>
<title>Asset 2</title>
<g>
	<g id="Layer_1-2_2_">
		<polygon class="st0" points="35.8,67.3 34.6,67.3 33.6,64 33.6,64 32.6,67.3 31.4,67.3 30,62.4 31.3,62.4 32.1,65.7 32.1,65.7 
			33,62.4 34.2,62.4 35.1,65.7 35.2,65.7 35.9,62.4 37.2,62.4 		"/>
		<polygon class="st0" points="45,67.3 43.8,67.3 42.9,64 42.8,64 41.9,67.3 40.7,67.3 39.3,62.4 40.6,62.4 41.3,65.7 41.4,65.7 
			42.2,62.4 43.5,62.4 44.4,65.7 44.4,65.7 45.2,62.4 46.4,62.4 		"/>
		<polygon class="st0" points="54.3,67.3 53.1,67.3 52.1,64 52.1,64 51.1,67.3 49.9,67.3 48.5,62.4 49.8,62.4 50.6,65.7 50.6,65.7 
			51.5,62.4 52.7,62.4 53.6,65.7 53.6,65.7 54.4,62.4 55.7,62.4 		"/>
		<path class="st0" d="M59.1,66.7c0,0.2-0.1,0.4-0.2,0.5c-0.1,0.1-0.3,0.2-0.5,0.2c-0.1,0-0.2,0-0.3-0.1c-0.1,0-0.2-0.1-0.2-0.1
			c-0.1-0.1-0.1-0.1-0.2-0.2c-0.1-0.2-0.1-0.4,0-0.5c0-0.1,0.1-0.2,0.2-0.2c0.1-0.1,0.1-0.1,0.2-0.2c0.1,0,0.2,0,0.3,0
			c0.2,0,0.4,0.1,0.5,0.2C59,66.4,59.1,66.6,59.1,66.7"/>
		<path class="st0" d="M65.4,67.3l-0.4-1h-1.9l-0.4,1h-1.3l2.1-4.9h1.2l2.1,4.9H65.4z M64,63.7l-0.6,1.7h1.2L64,63.7z"/>
		<path class="st0" d="M72.6,67.3c-0.3,0.1-0.7,0.1-1.1,0.1c-0.4,0-0.7-0.1-1.1-0.2c-0.3-0.1-0.6-0.3-0.9-0.5
			c-0.2-0.2-0.4-0.5-0.6-0.8c-0.1-0.3-0.2-0.7-0.2-1.1c0-0.4,0-0.7,0.2-1.1c0.1-0.3,0.3-0.6,0.6-0.8c0.2-0.2,0.5-0.4,0.8-0.5
			c0.3-0.1,0.7-0.2,1.1-0.2c0.4,0,0.7,0.1,1.1,0.2c0.3,0.1,0.6,0.3,0.8,0.5l-0.8,0.9c-0.1-0.1-0.3-0.3-0.5-0.3
			c-0.2-0.1-0.4-0.1-0.7-0.1c-0.2,0-0.4,0-0.6,0.1c-0.2,0.1-0.3,0.2-0.5,0.3c-0.1,0.1-0.2,0.3-0.3,0.5c-0.1,0.2-0.1,0.4-0.1,0.6
			c0,0.2,0,0.4,0.1,0.6c0.1,0.2,0.2,0.4,0.3,0.5c0.1,0.1,0.3,0.2,0.5,0.3c0.2,0.1,0.4,0.1,0.7,0.1c0.1,0,0.3,0,0.4,0
			c0.1,0,0.2-0.1,0.3-0.1v-0.9h-0.9v-1h2V67C73.1,67.1,72.8,67.3,72.6,67.3"/>
		<path class="st0" d="M79.2,67.3l-1.1-2h-0.4v2h-1.2v-4.9h1.9c0.2,0,0.5,0,0.7,0.1c0.2,0,0.4,0.1,0.6,0.2c0.2,0.1,0.3,0.3,0.4,0.5
			c0.1,0.2,0.2,0.5,0.2,0.7c0,0.3-0.1,0.6-0.3,0.8c-0.2,0.2-0.5,0.4-0.8,0.5l1.3,2.1L79.2,67.3z M79.2,63.9c0-0.1-0.1-0.2-0.2-0.3
			c0-0.1-0.1-0.1-0.2-0.2c-0.1,0-0.2-0.1-0.3-0.1c-0.1,0-0.2,0-0.3,0h-0.6v1.2h0.6h0.3c0.1,0,0.2,0,0.3-0.1c0.1,0,0.1-0.1,0.2-0.2
			C79,64.2,79.1,64,79.2,63.9"/>
		<path class="st0" d="M88.4,64.8c0,0.4-0.1,0.7-0.2,1.1c-0.1,0.3-0.3,0.6-0.6,0.8c-0.2,0.2-0.5,0.4-0.8,0.5c-0.7,0.3-1.5,0.3-2.2,0
			c-0.3-0.1-0.6-0.3-0.8-0.5c-0.2-0.2-0.4-0.5-0.6-0.8c-0.1-0.3-0.2-0.7-0.2-1.1c0-0.4,0.1-0.7,0.2-1.1c0.1-0.3,0.3-0.6,0.6-0.8
			c0.3-0.2,0.5-0.4,0.8-0.5c0.7-0.2,1.5-0.2,2.2,0c0.3,0.1,0.6,0.3,0.8,0.5c0.2,0.2,0.4,0.5,0.6,0.8C88.3,64.1,88.4,64.5,88.4,64.8
			 M87.1,64.8c0-0.2,0-0.4-0.1-0.6c-0.1-0.2-0.2-0.3-0.3-0.5c-0.1-0.1-0.3-0.2-0.4-0.3c-0.2-0.1-0.4-0.1-0.6-0.1
			c-0.2,0-0.4,0-0.6,0.1c-0.2,0.1-0.3,0.2-0.4,0.3c-0.1,0.1-0.2,0.3-0.3,0.5c-0.1,0.2-0.1,0.4-0.1,0.6c0,0.2,0,0.4,0.1,0.6
			c0.1,0.2,0.2,0.3,0.3,0.5c0.1,0.1,0.3,0.2,0.4,0.3c0.2,0.1,0.4,0.1,0.6,0.1c0.2,0,0.4,0,0.6-0.1c0.2-0.1,0.3-0.2,0.4-0.3
			c0.1-0.1,0.2-0.3,0.3-0.5C87.1,65.2,87.1,65,87.1,64.8"/>
		<polygon class="st0" points="91.3,67.3 91.3,62.4 92.5,62.4 92.5,66.3 94.4,66.3 94.4,67.3 		"/>
		<rect x="97" y="62.4" class="st0" width="1.2" height="4.9"/>
		<path class="st0" d="M106,64.8c0,0.4-0.1,0.8-0.2,1.1c-0.2,0.3-0.4,0.6-0.6,0.8c-0.3,0.2-0.6,0.4-0.9,0.4c-0.3,0.1-0.7,0.1-1,0.1
			h-1.8v-4.9h1.8c0.3,0,0.7,0,1,0.1c0.3,0.1,0.6,0.2,0.9,0.4c0.3,0.2,0.5,0.5,0.6,0.8C105.9,64,106,64.4,106,64.8 M104.7,64.8
			c0-0.2,0-0.5-0.1-0.7c-0.1-0.2-0.2-0.3-0.4-0.4c-0.2-0.1-0.3-0.2-0.5-0.2c-0.2,0-0.4-0.1-0.6-0.1h-0.6v2.9h0.6
			c0.2,0,0.4,0,0.6-0.1c0.2,0,0.4-0.1,0.5-0.2c0.2-0.1,0.3-0.3,0.4-0.4C104.7,65.3,104.7,65.1,104.7,64.8"/>
		<polygon class="st0" points="108.8,67.3 108.8,62.4 112.2,62.4 112.2,63.4 110,63.4 110,64.3 112,64.3 112,65.3 110,65.3 
			110,66.3 112.3,66.3 112.3,67.3 		"/>
		<path class="st0" d="M117.8,67.3l-1.1-2h-0.4v2h-1.2v-4.9h1.9c0.2,0,0.5,0,0.7,0.1c0.2,0,0.4,0.1,0.6,0.2c0.2,0.1,0.3,0.3,0.4,0.5
			c0.1,0.2,0.2,0.5,0.2,0.7c0,0.3-0.1,0.6-0.3,0.8c-0.2,0.2-0.5,0.4-0.8,0.5l1.3,2.1L117.8,67.3z M117.8,63.9c0-0.1,0-0.2-0.1-0.3
			c0-0.1-0.1-0.1-0.2-0.2c-0.1,0-0.2-0.1-0.3-0.1c-0.1,0-0.2,0-0.3,0h-0.6v1.2h0.6h0.3c0.1,0,0.2,0,0.3-0.1c0.1,0,0.1-0.1,0.2-0.2
			C117.8,64.2,117.8,64,117.8,63.9"/>
		<path class="st0" d="M123.1,66.7c0,0.2-0.1,0.4-0.2,0.5c-0.1,0.1-0.3,0.2-0.5,0.2c-0.1,0-0.2,0-0.3-0.1c-0.1,0-0.2-0.1-0.2-0.1
			c-0.1-0.1-0.1-0.1-0.2-0.2c-0.1-0.2-0.1-0.4,0-0.5c0-0.1,0.1-0.2,0.2-0.2c0.1-0.1,0.1-0.1,0.2-0.2c0.1,0,0.2,0,0.3,0
			c0.2,0,0.4,0.1,0.5,0.2C123.1,66.4,123.1,66.6,123.1,66.7"/>
		<polygon class="st0" points="130.6,67.3 130.6,63.8 130.6,63.8 129.3,67.3 128.4,67.3 127.2,63.8 127.2,63.8 127.2,67.3 
			126.1,67.3 126.1,62.4 127.8,62.4 128.9,65.5 128.9,65.5 130,62.4 131.7,62.4 131.7,67.3 		"/>
		<path class="st0" d="M139.4,64.8c0,0.4-0.1,0.8-0.2,1.1c-0.2,0.3-0.4,0.6-0.6,0.8c-0.3,0.2-0.6,0.4-0.9,0.4
			c-0.3,0.1-0.7,0.1-1,0.1h-1.8v-4.9h1.8c0.3,0,0.7,0,1,0.1c0.3,0.1,0.6,0.2,0.9,0.4c0.3,0.2,0.5,0.5,0.6,0.8
			C139.3,64,139.4,64.4,139.4,64.8 M138.2,64.8c0-0.2,0-0.5-0.1-0.7c-0.1-0.2-0.2-0.3-0.4-0.4c-0.2-0.1-0.3-0.2-0.5-0.2
			c-0.2,0-0.4-0.1-0.6-0.1H136v2.9h0.6c0.2,0,0.4,0,0.6-0.1c0.2,0,0.4-0.1,0.5-0.2c0.2-0.1,0.3-0.3,0.4-0.4
			C138.2,65.3,138.2,65.1,138.2,64.8"/>
		<path class="st0" d="M6.9,35.3h6.2l6.8,17.4h-6.4l-0.9-2.6H7.1l-0.9,2.6H0L6.9,35.3z M9.9,41.4l-1.4,4.3h2.8L9.9,41.4z"/>
		<path class="st0" d="M30.8,53.2c-1.3,0-2.6-0.2-3.8-0.7c-1.1-0.4-2.1-1-3-1.8c-0.9-0.8-1.5-1.8-2-2.9c-1-2.4-1-5.2,0-7.6
			c0.5-1.1,1.1-2.1,2-2.9c0.9-0.8,1.9-1.4,3-1.9c1.2-0.4,2.4-0.7,3.7-0.7c1.3,0,2.6,0.2,3.9,0.7c1.1,0.4,2.1,1,3,1.8l-3.4,4.1
			c-0.4-0.4-0.8-0.8-1.3-1C32.3,40.1,31.6,40,31,40c-0.5,0-1,0.1-1.4,0.3c-0.4,0.2-0.9,0.5-1.2,0.8c-0.3,0.4-0.6,0.8-0.8,1.3
			c-0.2,0.5-0.3,1.1-0.3,1.6c-0.1,1.1,0.3,2.1,0.9,3c0.8,0.8,1.9,1.2,3,1.2c0.3,0,0.5-0.1,0.8-0.2c0.2,0,0.4-0.1,0.6-0.2v-1.3h-2.8
			v-4.6h8v9.5c-0.5,0.3-0.9,0.5-1.4,0.7c-0.6,0.2-1.1,0.4-1.7,0.5c-0.6,0.2-1.3,0.3-1.9,0.4C32.1,53.1,31.5,53.2,30.8,53.2"/>
		<path class="st0" d="M52.8,41.5c-0.1-2.2,0.3-4.3,1.2-6.3c-0.5,0-12.1,0-12.1,0v17.4h5.7v-6.2h0.2l3.3,6.2h6.5
			C57.8,52.7,53.2,47.9,52.8,41.5 M50.6,41.9c-0.1,0.2-0.3,0.3-0.5,0.4c-0.2,0.1-0.4,0.2-0.7,0.2c-0.2,0-0.4,0-0.7,0h-1.1v-2.8h1.4
			c0.2,0,0.4,0,0.6,0c0.2,0,0.4,0.1,0.6,0.2c0.2,0.1,0.3,0.2,0.4,0.4c0.1,0.2,0.2,0.5,0.2,0.7C50.9,41.4,50.8,41.6,50.6,41.9"/>
		<polygon class="st1" points="92.7,35.3 98.6,35.3 98.6,47.7 104.4,47.7 104.4,52.7 92.7,52.7 		"/>
		<rect x="107.5" y="35.3" class="st1" width="5.9" height="17.4"/>
		<path class="st1" d="M118,52.7V35.3h6.5c1.3,0,2.7,0.1,4,0.4c1.2,0.2,2.3,0.7,3.3,1.4c0.9,0.7,1.7,1.6,2.2,2.7
			c0.6,1.3,0.9,2.7,0.9,4.2c0,1.4-0.2,2.7-0.8,4c-0.5,1.1-1.3,2-2.2,2.8c-1,0.7-2,1.3-3.2,1.6c-1.2,0.3-2.5,0.5-3.7,0.5L118,52.7z
			 M123.6,40.3v7.4h1.1c1.1,0.1,2.2-0.2,3.2-0.9c0.8-0.8,1.2-1.8,1.1-2.9c0.1-1-0.4-2-1.1-2.6c-0.8-0.7-1.9-1-2.9-0.9H123.6z"/>
		<polygon class="st1" points="138.6,35.3 150.6,35.3 150.6,40.2 144.2,40.2 144.2,41.7 150.2,41.7 150.2,46.2 144.2,46.2 
			144.2,47.8 151.1,47.8 151.1,52.7 138.6,52.7 		"/>
		<path class="st1" d="M154.8,35.3h7.5c0.9,0,1.7,0.1,2.6,0.3c0.8,0.2,1.6,0.5,2.3,0.9c0.7,0.4,1.2,1,1.6,1.8
			c0.4,0.8,0.7,1.8,0.6,2.8c0,1-0.3,2-0.8,2.8c-0.6,0.8-1.3,1.5-2.3,1.9l4.4,7.1H164l-3.3-6.2h-0.2v6.2h-5.7L154.8,35.3z
			 M160.4,42.6h1.1c0.2,0,0.4,0,0.6,0c0.2,0,0.5-0.1,0.7-0.2c0.2-0.1,0.4-0.3,0.5-0.5c0.2-0.2,0.2-0.5,0.2-0.8c0-0.3,0-0.5-0.2-0.7
			c-0.1-0.2-0.2-0.3-0.4-0.4c-0.2-0.1-0.4-0.2-0.6-0.2c-0.2,0-0.4,0-0.6,0h-1.4L160.4,42.6z"/>
		<path class="st0" d="M67.7,38.3c-1.3,0.8-1.8,2.5-1,3.9c0.8,1.3,2.5,1.8,3.9,1c1.3-0.8,1.8-2.5,1-3.9c0,0,0,0,0,0
			C70.8,38,69.1,37.5,67.7,38.3"/>
		<path class="st0" d="M111.5,23.9c-1.1-1.9-3.2-3.2-5.4-3.4l-7-11.9c-0.6-0.9-1.7-1.2-2.7-0.7l-5,2.9L87,3.3
			c-0.3-0.4-0.9-0.6-1.3-0.3l-2.5,1.5c-0.4,0.4-0.4,1-0.1,1.4c0.3,0.3,0.7,0.4,1.1,0.3l1.7-1l3.9,6.7l-10.9,6.4
			c-0.4,0.3-0.6,0.9-0.3,1.3l1.5,2.5l-3.2,1.9c-3.6-1.7-7.7-2-11.4-0.8l-2.9-3.1c-0.2-0.3-0.6-0.4-0.9-0.3c-0.5,0.2-0.8,0.7-0.7,1.2
			c0,0.1,0.1,0.3,0.2,0.4l2.4,2.6l0,0c-0.4,0.2-0.8,0.4-1.1,0.6L58.1,27c-0.5,0.2-0.8,0.7-0.6,1.3c0.2,0.5,0.7,0.8,1.3,0.6
			c0.1,0,0.3-0.1,0.4-0.2l1.7-1l0.9,1.5c-6.4,4.1-8.2,12.7-4.1,19.1c2.1,3.3,5.5,5.5,9.4,6.1l0,0c7.5,1.2,14.6-3.9,15.8-11.4
			c0.4-2.2,0.2-4.5-0.5-6.6l0,0l0.2,0.1l16.3-9.6c-0.3,3.8,2.6,7,6.4,7.3s7-2.6,7.3-6.4C112.5,26.4,112.2,25,111.5,23.9 M73.1,47.5
			c-3.7,2.2-8.5,0.9-10.7-2.8s-0.9-8.5,2.8-10.7c3.7-2.2,8.5-0.9,10.7,2.8c0,0,0,0,0,0C78.1,40.5,76.8,45.3,73.1,47.5 M107,29.9
			c-1.4,0.8-3.2,0.4-4-1s-0.4-3.2,1-4c1.4-0.8,3.2-0.4,4,1C108.8,27.2,108.4,29,107,29.9C107,29.8,107,29.9,107,29.9"/>
		<path class="st0" d="M105.1,26.5c-0.5,0.3-0.7,0.9-0.4,1.4s0.9,0.7,1.4,0.4c0.5-0.3,0.7-0.9,0.4-1.4c0,0,0,0,0,0
			C106.1,26.4,105.5,26.3,105.1,26.5"/>
		<path class="st0" d="M71.7,9.7c0.1,0.2,0.2,0.5,0.3,0.7c1,1.6,3,2.2,4.7,1.2c1-0.6,1.6-1.7,1.7-2.8h0.2c0.1,0,0.3,0,0.4,0h0.3
			c0.1,0,0.2,0,0.3-0.1c0.1,0,0.2,0,0.3-0.1c0.1,0,0.3-0.1,0.4-0.2l0.2-0.1c1.6-0.9,2.2-3,1.2-4.6c0,0,0,0,0-0.1l0,0
			c-0.1-0.2-0.2-0.4-0.4-0.5l-0.1-0.1C81,3,80.9,2.8,80.7,2.7l0,0C80,2.2,79.2,1.9,78.4,2c-1.3-2-4-2.6-6-1.3
			C71.5,1.2,70.8,2,70.5,3c-0.3,0.1-0.6,0.2-0.9,0.4c-1.6,1-2.2,3-1.2,4.7C69.1,9.2,70.4,9.8,71.7,9.7"/>
	</g>
</g>
</svg>
